#!OML:ASF G:\ViconDB\ViconDB\414\test\team2\shane.ASF
:FULLY-SPECIFIED
:DEGREES
220
root 5.25271 16.2904 -0.403674 -8.82163 2.91947 -3.15334
lowerback 9.24794 -0.837403 -1.885
upperback 7.01897 -1.24331 1.21574
thorax 2.17678 -0.720164 2.40409
lowerneck -20.5187 -5.91711 -10.9392
upperneck 14.003 -7.69484 14.4145
head 8.78137 -2.80372 5.68813
rclavicle 1.61513e-014 -7.35503e-015
rhumerus -35.4222 11.2174 -91.8461
rradius 30.7506
rwrist 32.6632
rhand -31.3265 -14.5502
rfingers 7.12502
rthumb -4.59838 -44.4802
lclavicle 1.61513e-014 -7.35503e-015
lhumerus -22.103 -15.687 95.3547
lradius 25.3216
lwrist -17.5788
lhand -40.9318 8.78729
lfingers 7.12502
lthumb -13.8659 38.3051
rfemur -15.9718 -15.163 14.2138
rtibia 70.8005
rfoot -19.6678 -7.04273
rtoes -15.3703
lfemur -0.830109 4.45154 -16.4258
ltibia 41.069
lfoot -32.6395 -9.0206
ltoes -5.96726
221
root 5.25804 16.3516 -0.262714 -8.71796 2.61484 -3.19924
lowerback 9.37597 -1.05734 -2.00721
upperback 6.81901 -1.54885 1.4381
thorax 1.92569 -0.878526 2.73024
lowerneck -20.4767 -5.49293 -10.6894
upperneck 14.2774 -7.12611 13.9927
head 8.75586 -2.56157 5.58781
rclavicle 2.8948e-014 -9.74045e-015
rhumerus -36.0203 10.5643 -91.6318
rradius 31.0978
rwrist 31.8199
rhand -30.3582 -14.6642
rfingers 7.12502
rthumb -3.66334 -44.6125
lclavicle 2.8948e-014 -9.74045e-015
lhumerus -21.8823 -15.8305 95.3344
lradius 25.5101
lwrist -17.7921
lhand -41.4566 8.80844
lfingers 7.12502
lthumb -14.3716 38.2909
rfemur -17.4677 -14.4556 14.7423
rtibia 69.7686
rfoot -19.7226 -6.86501
rtoes -15.6531
lfemur 0.377942 4.4063 -16.3179
ltibia 39.4434
lfoot -31.9958 -9.10474
ltoes -6.11007
222
root 5.26804 16.4298 -0.103631 -8.72719 2.13374 -3.15496
lowerback 9.51866 -1.27445 -2.25674
upperback 6.64227 -1.86037 1.69461
thorax 1.70192 -1.04491 3.16638
lowerneck -20.6412 -5.16315 -10.6885
upperneck 14.7826 -6.63712 13.6583
head 8.8721 -2.35245 5.55361
rclavicle -1.76421e-015 2.127e-014
rhumerus -36.6338 10.4784 -91.4525
rradius 31.1582
rwrist 31.5361
rhand -30.6787 -15.12
rfingers 7.12502
rthumb -3.97287 -45.0627
lclavicle -1.76421e-015 2.127e-014
lhumerus -21.8315 -15.8586 95.4156
lradius 26.2476
lwrist -17.0102
lhand -41.5978 8.74276
lfingers 7.12502
lthumb -14.5077 38.2155
rfemur -18.5756 -13.5352 15.0856
rtibia 68.5134
rfoot -19.8592 -6.46114
rtoes -16.23
lfemur 1.80453 4.65093 -16.239
ltibia 37.6471
lfoot -31.1556 -9.43499
ltoes -6.80216
223
root 5.27114 16.4929 0.0378872 -8.55506 1.98642 -3.21232
lowerback 9.70321 -1.56508 -2.36625
upperback 6.37996 -2.2583 1.89577
thorax 1.36994 -1.24431 3.47822
lowerneck -20.6305 -4.86517 -10.8577
upperneck 15.158 -6.21173 13.658
head 8.94415 -2.1595 5.65644
rclavicle -5.18393e-015 6.36111e-015
rhumerus -36.9794 8.59082 -90.6033
rradius 31.0906
rwrist 33.0318
rhand -30.4565 -14.8345
rfingers 7.12502
rthumb -3.75834 -44.7811
lclavicle -5.18393e-015 6.36111e-015
lhumerus -21.7223 -15.4978 95.2815
lradius 26.6803
lwrist -17.0538
lhand -41.6092 8.42721
lfingers 7.12502
lthumb -14.5186 37.8992
rfemur -19.9017 -13.0088 15.5621
rtibia 67.1971
rfoot -19.5466 -5.93457
rtoes -15.3796
lfemur 3.09023 4.69242 -16.1278
ltibia 35.7984
lfoot -30.4365 -9.26074
ltoes -7.33524
224
root 5.27556 16.5734 0.191771 -8.54895 1.71231 -3.31992
lowerback 9.85895 -1.83509 -2.41368
upperback 6.19242 -2.62366 2.1435
thorax 1.13351 -1.42831 3.80187
lowerneck -20.5157 -4.40102 -10.4947
upperneck 15.3342 -5.5739 13.0457
head 8.86134 -1.90285 5.47207
rclavicle -4.05769e-014 7.70291e-015
rhumerus -37.4071 7.75918 -90.1693
rradius 30.9279
rwrist 33.3255
rhand -30.566 -14.6951
rfingers 7.12502
rthumb -3.86402 -44.6398
lclavicle -4.05769e-014 7.70291e-015
lhumerus -21.6543 -15.0892 95.1287
lradius 27.1199
lwrist -17.2551
lhand -41.6702 8.35268
lfingers 7.12502
lthumb -14.5774 37.8204
rfemur -20.8321 -12.2674 16.0275
rtibia 65.6606
rfoot -18.8314 -5.30604
rtoes -15.0524
lfemur 4.63917 4.8048 -15.8805
ltibia 33.8101
lfoot -29.4481 -9.49811
ltoes -8.04756
225
root 5.27658 16.6525 0.342613 -8.39323 1.5662 -3.62005
lowerback 9.92738 -2.12916 -2.40412
upperback 5.95619 -3.01353 2.52274
thorax 0.905012 -1.62424 4.23264
lowerneck -20.5189 -4.05562 -10.4633
upperneck 15.6348 -5.05608 12.6912
head 8.88156 -1.69174 5.42239
rclavicle 2.00773e-014 -1.51076e-014
rhumerus -38.0285 8.10374 -90.1418
rradius 31.067
rwrist 32.2431
rhand -31.0438 -14.9049
rfingers 7.12502
rthumb -4.32543 -44.8407
lclavicle 2.00773e-014 -1.51076e-014
lhumerus -21.5107 -14.4311 95.0257
lradius 27.3636
lwrist -17.9761
lhand -41.7476 7.92974
lfingers 7.12502
lthumb -14.652 37.3921
rfemur -21.8457 -11.6791 16.7038
rtibia 64.0401
rfoot -17.9715 -4.41738
rtoes -14.1545
lfemur 5.94733 4.97334 -15.4095
ltibia 31.7631
lfoot -28.3593 -9.88543
ltoes -8.32121
